<svg xmlns="http://www.w3.org/2000/svg" viewBox="0 0 240 234" width="256" height="256">
  <path d="M 80.499 234 L 225 234 C 233.114 234 239.789 227.458 239.995 219.372 L 240 219.016 L 240 128.906 C 240 120.642 235.242 109.11 229.394 103.268 L 130.606 4.38 C 124.788 -1.461 115.242 -1.461 109.394 4.38 L 10.606 103.238 C 4.788 109.08 0 120.612 0 128.876 L 0 218.986 C 0 227.219 6.758 234 15 234 L 68.499 234 L 68.499 214.847 C 64.914 212.77 62.501 208.893 62.501 204.455 C 62.501 200.018 64.914 196.141 68.499 194.064 L 68.499 95.847 C 64.914 93.77 62.501 89.893 62.501 85.455 C 62.501 78.833 67.878 73.455 74.501 73.455 C 81.124 73.455 86.501 78.833 86.501 85.455 C 86.501 89.894 84.086 93.773 80.499 95.849 L 80.499 138.955 L 141.849 138.955 C 148.129 138.925 154.149 136.415 158.579 131.965 C 163.009 127.515 165.499 121.485 165.499 115.205 C 165.499 108.925 163.009 102.895 158.579 98.445 C 154.149 93.995 148.129 91.485 141.849 91.455 L 120.893 91.455 C 118.817 95.041 114.939 97.455 110.501 97.455 C 103.878 97.455 98.501 92.078 98.501 85.455 C 98.501 78.833 103.878 73.455 110.501 73.455 C 114.939 73.455 118.817 75.87 120.893 79.455 L 141.859 79.455 C 141.869 79.455 141.869 79.455 141.879 79.455 C 151.339 79.485 160.399 83.275 167.079 89.975 C 173.749 96.665 177.499 105.745 177.499 115.205 C 177.499 124.665 173.749 133.745 167.079 140.436 C 165.375 142.144 163.517 143.664 161.522 144.955 C 163.517 146.247 165.375 147.767 167.079 149.475 C 173.749 156.165 177.499 165.245 177.499 174.705 L 177.499 174.705 C 177.499 184.165 173.749 193.245 167.079 199.936 C 160.399 206.635 151.339 210.425 141.879 210.455 C 141.869 210.455 141.869 210.455 141.859 210.455 L 120.893 210.455 C 118.817 214.041 114.939 216.455 110.501 216.455 C 103.878 216.455 98.501 211.078 98.501 204.455 C 98.501 197.833 103.878 192.455 110.501 192.455 C 114.939 192.455 118.817 194.87 120.893 198.455 L 141.849 198.455 C 148.129 198.425 154.149 195.915 158.579 191.465 C 163.009 187.015 165.499 180.985 165.499 174.705 L 165.499 174.705 C 165.499 168.425 163.009 162.395 158.579 157.945 C 154.139 153.495 148.119 150.975 141.839 150.955 L 80.499 150.955 L 80.499 194.062 C 84.086 196.138 86.501 200.017 86.501 204.455 C 86.501 208.894 84.086 212.773 80.499 214.849 L 80.499 234 Z" fill="#ff5c00"/>
</svg>
